HIERARCHY
ROOT root
{
	OFFSET 0.000000 0.000000 0.000000
	CHANNELS 6 Xposition Yposition Zposition Zrotation Yrotation Xrotation
	JOINT lhip
	{
		OFFSET 0.058581 -0.082280 -0.017664
		CHANNELS 3 Zrotation Yrotation Xrotation
		JOINT lknee
		{
			OFFSET 0.043451 -0.386469 0.008037
			CHANNELS 3 Zrotation Yrotation Xrotation
			JOINT lankle
			{
				OFFSET -0.014790 -0.426874 -0.037428
				CHANNELS 3 Zrotation Yrotation Xrotation
				JOINT ltoe
				{
					OFFSET 0.041054 -0.060286 0.122042
					CHANNELS 3 Zrotation Yrotation Xrotation
					End Site
					{
						OFFSET 0.000000 0.000000 0.000000
					}
				}
			}
		}
	}
	JOINT rhip
	{
		OFFSET -0.060310 -0.090513 -0.013543
		CHANNELS 3 Zrotation Yrotation Xrotation
		JOINT rknee
		{
			OFFSET -0.043257 -0.383688 -0.004843
			CHANNELS 3 Zrotation Yrotation Xrotation
			JOINT rankle
			{
				OFFSET 0.019056 -0.420046 -0.034562
				CHANNELS 3 Zrotation Yrotation Xrotation
				JOINT rtoe
				{
					OFFSET -0.034840 -0.062106 0.130323
					CHANNELS 3 Zrotation Yrotation Xrotation
					End Site
					{
						OFFSET 0.000000 0.000000 0.000000
					}
				}
			}
		}
	}
	JOINT lowerback
	{
		OFFSET 0.004439 0.124404 -0.038385
		CHANNELS 3 Zrotation Yrotation Xrotation
		JOINT upperback
		{
			OFFSET 0.004488 0.137956 0.026820
			CHANNELS 3 Zrotation Yrotation Xrotation
			JOINT chest
			{
				OFFSET -0.002265 0.056032 0.002855
				CHANNELS 3 Zrotation Yrotation Xrotation
				JOINT lowerneck
				{
					OFFSET -0.013390 0.211636 -0.033468
					CHANNELS 3 Zrotation Yrotation Xrotation
					JOINT upperneck
					{
						OFFSET 0.010113 0.088937 0.050410
						CHANNELS 3 Zrotation Yrotation Xrotation
						End Site
						{
							OFFSET 0.000000 0.000000 0.000000
						}
					}
				}
				JOINT lclavicle
				{
					OFFSET 0.071702 0.114000 -0.018898
					CHANNELS 3 Zrotation Yrotation Xrotation
					JOINT lshoulder
					{
						OFFSET 0.122921 0.045205 -0.019046
						CHANNELS 3 Zrotation Yrotation Xrotation
						JOINT lelbow
						{
							OFFSET 0.255332 -0.015649 -0.022946
							CHANNELS 3 Zrotation Yrotation Xrotation
							JOINT lwrist
							{
								OFFSET 0.265709 0.012698 -0.007375
								CHANNELS 3 Zrotation Yrotation Xrotation
								End Site
								{
									OFFSET 0.000000 0.000000 0.000000
								}
							}
						}
					}
				}
				JOINT rclavicle
				{
					OFFSET -0.082954 0.112472 -0.023707
					CHANNELS 3 Zrotation Yrotation Xrotation
					JOINT rshoulder
					{
						OFFSET -0.113228 0.046853 -0.008472
						CHANNELS 3 Zrotation Yrotation Xrotation
						JOINT relbow
						{
							OFFSET -0.260127 -0.014369 -0.031269
							CHANNELS 3 Zrotation Yrotation Xrotation
							JOINT rwrist
							{
								OFFSET -0.269108 0.006794 -0.006027
								CHANNELS 3 Zrotation Yrotation Xrotation
								End Site
								{
									OFFSET 0.000000 0.000000 0.000000
								}
							}
						}
					}
				}
			}
		}
	}
}
MOTION
Frames: 17
Frame Time: 0.033333
0.229463 -0.058538 0.978163 137.524414 6.625702 89.755070 26.420773 16.268647 2.992516 2.257916 15.692574 25.366071 -20.812544 2.431073 2.531081 0.000000 -0.000000 0.000000 6.486632 10.978505 -20.000719 1.157122 6.170347 25.424564 7.597806 12.713701 -4.253501 0.000000 -0.000000 0.000000 -15.086299 -7.207462 17.065208 0.287501 -21.842871 6.506890 -0.154310 -8.998518 -12.588972 -10.719334 53.639734 4.899784 -2.176214 26.001423 3.241618 2.893723 -59.630513 -14.086569 -24.881026 -66.841668 0.390026 7.660223 -28.904753 5.048847 14.413385 -30.957229 4.014243 12.129861 22.568668 -3.578627 43.020344 30.974787 6.017225 -105.164095 46.111560 -71.441166 -60.613345 13.933930 -8.621106 
0.237176 -0.058634 0.979738 136.752972 6.274839 89.952807 26.561213 16.338692 3.062541 2.406630 15.757990 25.740820 -21.954950 2.766843 4.649669 0.000000 -0.000000 0.000000 6.700002 11.231061 -20.062192 1.075757 6.662106 25.606796 7.810325 12.883272 -4.122590 0.000000 -0.000000 0.000000 -15.282732 -7.433102 16.934736 0.111574 -22.063809 5.767504 -0.365054 -9.075971 -12.475675 -11.220340 53.955603 3.804836 -2.241904 26.146048 2.613156 6.296071 -59.791158 -17.500634 -21.781451 -68.967811 -1.978939 8.425066 -29.328382 3.395278 16.419829 -33.172849 2.846635 9.903988 21.616496 -5.369973 40.033996 30.741194 4.519152 -107.547982 45.754330 -72.593462 -61.191115 16.102433 -7.059891 
0.244090 -0.058439 0.981288 136.125693 5.919955 90.119800 26.546472 16.213841 3.197020 2.521379 15.650301 25.846554 -23.241702 3.175096 6.674951 0.000000 -0.000000 0.000000 6.795660 11.435665 -19.978333 1.077010 7.144550 25.590893 8.022801 12.808616 -3.983672 0.000000 -0.000000 0.000000 -15.397911 -7.507012 16.738799 -0.144359 -22.222558 5.441789 -0.608746 -9.030463 -12.652602 -11.528435 54.138907 2.968459 -2.191109 26.206435 2.087923 9.273415 -60.303185 -20.400429 -18.357699 -70.597982 -4.482279 9.153727 -29.466056 2.463102 19.127276 -36.060103 2.002275 8.241956 21.050542 -6.869097 36.741861 29.703704 2.709887 -110.106939 45.000765 -73.716860 -61.505614 18.239830 -5.743175 
0.250308 -0.058997 0.982649 135.566949 5.666377 90.345106 26.661849 16.270617 3.259132 2.474614 15.672815 25.902738 -24.005177 3.662270 8.440934 0.000000 -0.000000 0.000000 7.023476 11.515676 -19.933346 1.075756 7.913763 25.537961 8.050853 12.709949 -3.674543 0.000000 -0.000000 0.000000 -15.111791 -7.997644 16.816964 -0.191899 -22.217496 4.482485 -0.921695 -9.549486 -12.065634 -14.880657 54.567115 -1.025846 -1.569622 26.581783 2.246421 13.216368 -58.357155 -24.714633 -17.621158 -72.688724 -5.340945 10.084317 -30.570255 2.039936 22.113782 -37.031393 -2.002079 5.743933 20.030923 -8.328921 35.149608 30.324964 1.420497 -111.532696 44.568925 -73.249084 -61.728327 19.729161 -5.579841 
0.255333 -0.059345 0.983880 135.287307 5.444544 90.554585 26.502233 16.100967 3.229471 2.678692 15.493396 25.870420 -24.673737 4.076873 9.482173 0.000000 -0.000000 0.000000 7.084757 11.669357 -20.038300 1.126551 8.169601 25.619207 8.297554 12.609553 -3.537100 0.000000 -0.000000 0.000000 -15.449359 -7.860782 16.605065 -0.426979 -22.457596 4.329153 -0.938729 -9.198857 -12.410546 -13.017693 54.714222 0.880425 -1.651101 26.863086 1.550095 14.429317 -60.042398 -25.188921 -11.010297 -72.898366 -10.684218 10.897989 -30.676148 0.167414 23.256739 -39.064773 -1.764749 4.958045 19.662466 -8.803926 32.050347 28.633120 -0.308977 -112.478109 44.107149 -73.964789 -61.577331 20.813467 -4.893906 
0.259834 -0.059384 0.984821 135.084916 5.425365 90.602252 26.724206 16.250931 3.406474 2.936879 15.795250 25.749467 -25.286817 4.392170 10.716952 0.000000 -0.000000 0.000000 7.376861 11.815936 -19.849960 1.052345 8.321491 25.541872 8.290696 12.472088 -3.571275 0.000000 -0.000000 0.000000 -15.263090 -8.084597 16.637643 -0.565354 -22.489058 4.053208 -0.997314 -9.294557 -12.372886 -13.576961 54.658392 0.486826 -1.744412 27.342173 1.060311 16.237279 -59.769253 -27.123377 -8.563824 -73.409578 -13.072622 11.429158 -31.166909 -0.045537 24.214353 -39.952381 -1.675269 3.369634 19.083391 -9.686513 30.714863 27.904111 -1.225127 -112.961413 43.783461 -73.657630 -62.108186 22.102874 -3.724359 
0.263116 -0.059548 0.985524 134.906760 5.349203 90.633540 26.813745 16.514183 3.627404 3.070457 15.956668 25.295757 -25.681734 4.870540 11.954229 0.000000 -0.000000 0.000000 7.496251 11.699706 -19.849238 1.148040 8.480405 25.679953 8.264118 12.562301 -3.466419 0.000000 -0.000000 0.000000 -15.309342 -8.199311 16.724732 -0.630365 -22.521239 3.792699 -1.026134 -9.272874 -12.151612 -13.958301 54.845340 0.026894 -1.796136 27.348762 0.813883 17.424955 -59.559357 -28.249693 -5.639709 -73.724261 -15.552149 11.838183 -31.431534 -0.213482 25.014340 -39.964531 -1.965518 2.352881 18.620855 -10.178126 29.329790 27.475471 -2.132362 -112.956038 43.889999 -73.534865 -62.946067 21.939234 -4.099503 
0.265230 -0.059953 0.986313 134.761605 5.347563 90.821469 26.756377 16.391424 3.647924 2.922850 15.475460 25.073920 -25.774439 5.117491 12.038323 0.000000 -0.000000 0.000000 7.611202 11.754582 -19.936969 1.217702 8.734313 25.579965 8.423074 12.465546 -3.241243 0.000000 -0.000000 0.000000 -15.256540 -8.269010 16.519083 -0.738840 -22.459571 3.710889 -1.066390 -9.306062 -11.954366 -14.180101 54.726415 -0.165384 -1.910842 27.558589 0.543401 17.979713 -59.260607 -28.724732 -3.785794 -74.040448 -17.347070 12.205189 -31.525121 -0.514502 25.172616 -39.599281 -1.496967 1.626975 18.195205 -10.339789 28.348187 27.172963 -2.770887 -112.702335 44.008508 -73.252475 -63.511613 22.190308 -4.316911 
0.266048 -0.060361 0.986983 134.785365 5.315128 90.942215 26.841450 16.507762 3.523477 2.862488 15.500647 24.964846 -26.042554 5.391742 12.745407 0.000000 -0.000000 0.000000 7.595827 11.771008 -19.883921 1.262779 8.934034 25.241011 8.468817 12.300796 -2.995302 0.000000 -0.000000 0.000000 -15.271252 -8.181839 16.528462 -0.941507 -22.467623 3.875593 -1.075392 -9.237421 -12.074494 -13.646155 54.664649 0.554212 -1.904401 27.831857 -0.076391 18.353902 -59.786809 -28.796648 -1.851898 -73.512863 -18.732852 12.375780 -31.679368 -0.986279 25.230989 -39.051874 -0.423320 1.339657 18.245783 -10.478256 27.614980 26.325629 -3.146233 -112.341547 44.025763 -73.483949 -63.521285 21.533952 -4.941127 
0.265377 -0.060942 0.987429 134.762093 5.309107 91.056421 26.902282 16.674331 3.360172 2.706628 15.418085 24.959973 -26.151495 5.410854 12.933831 0.000000 -0.000000 0.000000 7.569158 11.628058 -20.027348 1.243351 9.004777 25.086887 8.610609 12.437982 -2.798263 0.000000 -0.000000 0.000000 -15.111543 -8.081366 16.727802 -1.016814 -22.314517 3.728916 -1.064051 -9.240881 -11.973214 -13.899642 54.728895 0.507498 -1.841921 28.045382 -0.142280 18.584032 -59.675670 -29.202087 -1.555418 -73.531211 -18.935437 12.503044 -31.309658 -0.892904 24.184725 -37.815899 0.359903 0.817941 18.213527 -10.642285 27.473457 26.235642 -3.232170 -111.740576 44.158300 -73.751711 -63.816659 19.996302 -6.335255 
0.263318 -0.061548 0.987625 134.927106 5.276295 91.267494 26.681192 16.770661 2.931426 2.656084 15.427060 24.969117 -25.840607 5.496363 12.552097 0.000000 -0.000000 0.000000 7.305808 11.437476 -20.291972 1.346418 8.951846 24.845064 8.745303 12.485845 -2.560207 0.000000 -0.000000 0.000000 -14.959309 -7.952785 16.865616 -1.087259 -22.213083 3.713640 -1.026773 -9.179433 -11.906155 -13.835090 54.551190 0.657637 -1.848096 28.037004 -0.122570 19.157038 -59.748384 -29.638748 -1.565985 -73.095767 -19.016292 12.531845 -31.039768 -0.858426 23.478804 -36.555312 1.842284 0.330042 18.552534 -10.445191 27.601469 26.261569 -3.402955 -110.873263 43.847891 -73.687235 -64.286243 18.552813 -7.326475 
0.259833 -0.062328 0.987889 135.405990 5.339393 91.375847 26.537693 16.801575 2.441114 2.642225 15.534800 25.076905 -25.522205 5.245155 11.812215 0.000000 -0.000000 0.000000 7.110339 11.299053 -20.504316 1.302458 8.627991 24.581278 8.741628 12.436531 -2.382805 0.000000 -0.000000 0.000000 -14.651910 -8.043241 17.295784 -1.102336 -22.124296 3.541621 -1.058762 -9.270507 -11.656078 -14.027895 54.538223 0.607912 -1.898188 28.033952 -0.004887 19.200031 -59.161426 -29.795387 -2.649301 -73.088047 -18.249211 12.430261 -30.382964 -0.835483 21.558748 -35.411436 3.123601 0.019761 18.508907 -10.695608 28.721062 27.368292 -2.747264 -109.321543 43.953137 -73.221210 -64.298350 17.565559 -8.044149 
0.254399 -0.063291 0.987949 136.249471 5.255808 91.612388 25.967721 16.630826 1.651488 2.423506 15.389132 25.102975 -24.764079 5.135441 10.270001 0.000000 -0.000000 0.000000 6.534451 10.995628 -20.964786 1.345713 8.142789 24.384107 8.975072 12.222670 -2.145061 0.000000 -0.000000 0.000000 -14.575130 -7.818840 17.807906 -0.938290 -22.138422 3.481080 -0.923457 -9.390915 -11.400233 -13.733871 54.270558 0.830276 -1.944229 27.707658 0.036549 19.270992 -59.111588 -29.744330 -2.910981 -72.806504 -18.176850 12.122991 -29.379092 -0.322846 20.072182 -34.022009 3.433555 -0.193957 18.838294 -10.927294 30.070384 28.305304 -2.056698 -107.594975 43.602311 -72.466645 -63.412381 15.579553 -9.267304 
0.247438 -0.064491 0.988275 137.590999 5.234534 91.880732 25.423644 16.577889 0.722409 2.021278 15.228467 24.855127 -23.556202 4.608450 8.269256 0.000000 -0.000000 0.000000 5.968806 10.518802 -21.339650 1.235193 7.419942 23.973403 9.220270 11.854927 -1.932336 0.000000 -0.000000 0.000000 -14.395179 -7.634109 18.534884 -0.729158 -22.216370 3.606031 -0.658807 -9.470643 -11.231739 -13.629153 54.108824 1.089544 -2.034967 27.682645 -0.009767 19.051579 -59.087123 -29.398804 -4.094019 -72.546395 -17.565351 12.004979 -28.888325 -0.535985 17.432789 -31.512716 2.871726 -0.132300 19.349662 -10.966859 31.726906 29.106884 -1.213143 -106.109509 43.147777 -71.836583 -62.572130 13.381059 -9.767589 
0.238847 -0.065608 0.988309 139.573750 5.258908 92.267899 24.805664 16.768111 -0.583003 1.729661 15.462097 24.526977 -22.067156 4.158142 6.367065 0.000000 -0.000000 0.000000 5.233617 9.814501 -21.825752 1.209230 6.536720 23.466106 9.384013 11.237756 -1.688416 0.000000 -0.000000 0.000000 -14.019778 -7.421658 19.247568 -0.376171 -22.279409 3.657643 -0.355054 -9.655391 -10.796985 -13.390574 53.311899 1.222972 -1.978157 27.236045 0.514936 18.136110 -59.194878 -28.516762 -5.807574 -72.251931 -16.535820 11.431506 -28.072606 -0.042312 15.567771 -29.821575 2.812078 0.237377 20.009106 -10.811609 33.374853 29.882926 -0.284400 -104.453120 42.594306 -70.881824 -61.333373 11.761728 -10.265220 
0.228447 -0.066688 0.988154 142.048023 5.180392 92.909121 24.056598 16.916711 -2.088060 1.265366 16.431559 23.858429 -20.559908 3.261629 4.403195 0.000000 -0.000000 0.000000 4.209723 9.019791 -22.433381 0.994102 5.317818 22.753783 9.651738 10.668310 -1.495583 0.000000 -0.000000 0.000000 -13.351609 -7.188224 19.968661 0.093388 -22.292553 3.545163 -0.115540 -9.891043 -10.359743 -13.121593 52.919147 1.537611 -1.843029 27.115082 0.903127 17.437408 -58.706411 -27.793042 -9.923029 -72.381296 -13.525436 10.880268 -27.004619 1.024159 14.327854 -28.219165 3.835945 0.750653 20.200034 -10.377249 35.452544 30.704635 0.820011 -103.016135 42.282063 -70.145403 -59.974192 10.753936 -10.649188 
0.216079 -0.068209 0.988097 145.159321 5.054444 93.576963 23.303946 16.757688 -3.681822 0.137137 16.793499 22.688652 -18.803168 2.355192 2.537711 0.000000 -0.000000 0.000000 2.809847 7.997882 -23.046821 0.995130 3.468421 22.028839 10.162102 9.892646 -1.061474 0.000000 -0.000000 0.000000 -12.753661 -6.707963 20.801372 0.789776 -22.276107 3.636078 0.290958 -9.875106 -10.047499 -11.645675 51.918940 2.636223 -1.779057 26.471111 1.603297 15.625125 -59.064406 -25.724341 -12.930543 -72.175236 -11.135333 10.236401 -25.905606 1.763486 13.026900 -27.388557 3.376706 2.150005 20.370749 -9.505159 37.042025 31.089749 1.836700 -101.110017 42.198860 -69.552016 -58.976042 9.109642 -12.316645 
